<?xml version="1.0" encoding="utf-8"?>
<!-- Generator: Adobe Illustrator 25.4.0, SVG Export Plug-In . SVG Version: 6.00 Build 0)  -->
<svg version="1.1" id="Layer_1" xmlns="http://www.w3.org/2000/svg" xmlns:xlink="http://www.w3.org/1999/xlink" x="0px" y="0px"
	 viewBox="0 0 283.46 283.46" style="enable-background:new 0 0 283.46 283.46;" xml:space="preserve">
<style type="text/css">
	.st0{fill:url(#SVGID_1_);}
	.st1{fill:#FFFFFF;}
	.st2{fill:url(#SVGID_00000091736703949569734650000017230992488008491909_);}
	.st3{fill:url(#SVGID_00000089536435072289766990000004713196252842690239_);}
	.st4{fill:url(#SVGID_00000036223387297869328530000005347531043959576462_);}
	.st5{fill:url(#SVGID_00000149374323934462549680000008699947037084820620_);}
	.st6{fill:url(#SVGID_00000143615483119808554590000010497037575613910422_);}
	.st7{fill:url(#SVGID_00000056418982846504235790000010992860463484268196_);}
	.st8{fill:url(#SVGID_00000088105683422173406760000006400035401814098837_);}
	.st9{fill:url(#SVGID_00000001641347001475916890000017131967192531241111_);}
	.st10{fill:url(#SVGID_00000122711263164799942300000016217782156987047857_);}
	.st11{fill:url(#SVGID_00000034072209261061341330000001489612442059036553_);}
	.st12{fill:url(#SVGID_00000127731202459299124230000009639120766249570974_);}
</style>
<linearGradient id="SVGID_1_" gradientUnits="userSpaceOnUse" x1="-7.0193" y1="275.6688" x2="290.4839" y2="7.7957">
	<stop  offset="0" style="stop-color:#0D3641"/>
	<stop  offset="1" style="stop-color:#0E4A87"/>
</linearGradient>
<rect y="0" class="st0" width="283.46" height="283.46"/>
<g>
	<circle class="st1" cx="185.48" cy="79.86" r="10.83"/>
	
		<linearGradient id="SVGID_00000080195709391332960220000017064413686089919151_" gradientUnits="userSpaceOnUse" x1="54.6582" y1="79.8588" x2="76.311" y2="79.8588">
		<stop  offset="0" style="stop-color:#0089CD"/>
		<stop  offset="1" style="stop-color:#00ADEE"/>
	</linearGradient>
	<circle style="fill:url(#SVGID_00000080195709391332960220000017064413686089919151_);" cx="65.48" cy="79.86" r="10.83"/>
	<path class="st1" d="M166.41,95.69v-4.13h1.51v4.13c3.23,0.38,5.75,3.1,5.75,6.43c0,3.59-2.91,6.51-6.51,6.51s-6.51-2.91-6.51-6.51
		C160.66,98.79,163.18,96.07,166.41,95.69z"/>
	<path class="st1" d="M146.94,100.36V87.57h1.51v12.79c4.78,0.39,8.53,4.38,8.53,9.25c0,5.13-4.16,9.29-9.29,9.29
		c-5.13,0-9.29-4.16-9.29-9.29C138.4,104.73,142.16,100.74,146.94,100.36z"/>
	<path class="st1" d="M82.5,95.69V71.61h1.51v24.08c3.23,0.38,5.75,3.1,5.75,6.43c0,3.59-2.91,6.51-6.51,6.51s-6.51-2.91-6.51-6.51
		C76.75,98.79,79.26,96.07,82.5,95.69z"/>
	<path class="st1" d="M101.97,100.36V75.6h1.51v24.75c4.78,0.39,8.53,4.38,8.53,9.25c0,5.13-4.16,9.29-9.29,9.29
		c-5.13,0-9.29-4.16-9.29-9.29C93.44,104.73,97.2,100.74,101.97,100.36z"/>
	<path class="st1" d="M124.46,110.7V83.58h1.51v27.12c5.62,0.39,10.07,5.06,10.07,10.79c0,5.98-4.85,10.83-10.83,10.83
		s-10.83-4.85-10.83-10.83C114.39,115.77,118.83,111.09,124.46,110.7z"/>
	
		<linearGradient id="SVGID_00000094589088280073842380000005348941052420689075_" gradientUnits="userSpaceOnUse" x1="76.7451" y1="61.0506" x2="89.7622" y2="61.0506">
		<stop  offset="0" style="stop-color:#0089CD"/>
		<stop  offset="1" style="stop-color:#00ADEE"/>
	</linearGradient>
	<path style="fill:url(#SVGID_00000094589088280073842380000005348941052420689075_);" d="M76.75,57c0-3.59,2.91-6.51,6.51-6.51
		s6.51,2.91,6.51,6.51c0,3.34-2.52,6.05-5.75,6.43v8.18H82.5v-8.18C79.26,63.05,76.75,60.33,76.75,57z"/>
	
		<linearGradient id="SVGID_00000107580918293482922810000011597705866180213420_" gradientUnits="userSpaceOnUse" x1="93.4409" y1="57.9115" x2="112.0198" y2="57.9115">
		<stop  offset="0" style="stop-color:#0089CD"/>
		<stop  offset="1" style="stop-color:#00ADEE"/>
	</linearGradient>
	<path style="fill:url(#SVGID_00000107580918293482922810000011597705866180213420_);" d="M93.44,49.51c0-5.13,4.16-9.29,9.29-9.29
		c5.13,0,9.29,4.16,9.29,9.29c0,4.87-3.76,8.86-8.53,9.25V75.6h-1.51V58.76C97.2,58.38,93.44,54.39,93.44,49.51z"/>
	
		<linearGradient id="SVGID_00000178903724567630150640000005874935542793861052_" gradientUnits="userSpaceOnUse" x1="160.6624" y1="70.9917" x2="173.6791" y2="70.9917">
		<stop  offset="0" style="stop-color:#0089CD"/>
		<stop  offset="1" style="stop-color:#00ADEE"/>
	</linearGradient>
	<path style="fill:url(#SVGID_00000178903724567630150640000005874935542793861052_);" d="M166.41,63.43v28.07h1.51V63.43
		c3.23-0.38,5.75-3.1,5.75-6.43c0-3.59-2.91-6.51-6.51-6.51s-6.51,2.91-6.51,6.51C160.66,60.33,163.18,63.05,166.41,63.43z"/>
	
		<linearGradient id="SVGID_00000111887796666235392940000003904360529091966851_" gradientUnits="userSpaceOnUse" x1="138.4044" y1="63.8634" x2="156.9833" y2="63.8634">
		<stop  offset="0" style="stop-color:#0089CD"/>
		<stop  offset="1" style="stop-color:#00ADEE"/>
	</linearGradient>
	<path style="fill:url(#SVGID_00000111887796666235392940000003904360529091966851_);" d="M138.4,49.51c0-5.13,4.16-9.29,9.29-9.29
		c5.13,0,9.29,4.16,9.29,9.29c0,4.87-3.76,8.86-8.53,9.25v28.74h-1.51V58.76C142.16,58.38,138.4,54.39,138.4,49.51z"/>
	
		<linearGradient id="SVGID_00000052820356545428594780000004386902762595827868_" gradientUnits="userSpaceOnUse" x1="114.3859" y1="55.1912" x2="136.0386" y2="55.1912">
		<stop  offset="0" style="stop-color:#0089CD"/>
		<stop  offset="1" style="stop-color:#00ADEE"/>
	</linearGradient>
	<path style="fill:url(#SVGID_00000052820356545428594780000004386902762595827868_);" d="M114.39,37.63
		c0-5.98,4.85-10.83,10.83-10.83s10.83,4.85,10.83,10.83c0,5.72-4.44,10.4-10.07,10.79v35.16h-1.51V48.42
		C118.83,48.03,114.39,43.35,114.39,37.63z"/>
</g>
<g>
	<path class="st1" d="M205.31,63.43v4.13h-1.51v-4.13c-3.23-0.38-5.75-3.1-5.75-6.43c0-3.59,2.91-6.51,6.51-6.51
		s6.51,2.91,6.51,6.51C211.06,60.33,208.54,63.05,205.31,63.43z"/>
	<path class="st1" d="M224.78,58.76v12.79h-1.51V58.76c-4.78-0.39-8.53-4.38-8.53-9.25c0-5.13,4.16-9.29,9.29-9.29
		c5.13,0,9.29,4.16,9.29,9.29C233.32,54.39,229.56,58.38,224.78,58.76z"/>
	<path class="st1" d="M269.75,58.76v24.75h-1.51V58.76c-4.78-0.39-8.53-4.38-8.53-9.25c0-5.13,4.16-9.29,9.29-9.29
		c5.13,0,9.29,4.16,9.29,9.29C278.28,54.39,274.52,58.38,269.75,58.76z"/>
	<path class="st1" d="M247.27,48.42v27.12h-1.51V48.42c-5.62-0.39-10.07-5.06-10.07-10.79c0-5.98,4.85-10.83,10.83-10.83
		c5.98,0,10.83,4.85,10.83,10.83C257.34,43.35,252.89,48.03,247.27,48.42z"/>
	
		<linearGradient id="SVGID_00000005980376198394685500000001902288787738134189_" gradientUnits="userSpaceOnUse" x1="1158.5785" y1="465.5774" x2="1177.1573" y2="465.5774" gradientTransform="matrix(-1 0 0 -1 1436.859 566.7838)">
		<stop  offset="0" style="stop-color:#0089CD"/>
		<stop  offset="1" style="stop-color:#00ADEE"/>
	</linearGradient>
	<path style="fill:url(#SVGID_00000005980376198394685500000001902288787738134189_);" d="M278.28,109.61
		c0,5.13-4.16,9.29-9.29,9.29c-5.13,0-9.29-4.16-9.29-9.29c0-4.87,3.76-8.86,8.53-9.25V83.52h1.51v16.84
		C274.52,100.74,278.28,104.73,278.28,109.61z"/>
	
		<linearGradient id="SVGID_00000018952207136001193600000016752836949495672470_" gradientUnits="userSpaceOnUse" x1="1225.7999" y1="478.6577" x2="1238.8167" y2="478.6577" gradientTransform="matrix(-1 0 0 -1 1436.859 566.7838)">
		<stop  offset="0" style="stop-color:#0089CD"/>
		<stop  offset="1" style="stop-color:#00ADEE"/>
	</linearGradient>
	<path style="fill:url(#SVGID_00000018952207136001193600000016752836949495672470_);" d="M205.31,95.69V67.62h-1.51v28.07
		c-3.23,0.38-5.75,3.1-5.75,6.43c0,3.59,2.91,6.51,6.51,6.51s6.51-2.91,6.51-6.51C211.06,98.79,208.54,96.07,205.31,95.69z"/>
	
		<linearGradient id="SVGID_00000039094452853731567760000001517314346854493083_" gradientUnits="userSpaceOnUse" x1="1203.542" y1="471.5293" x2="1222.1208" y2="471.5293" gradientTransform="matrix(-1 0 0 -1 1436.859 566.7838)">
		<stop  offset="0" style="stop-color:#0089CD"/>
		<stop  offset="1" style="stop-color:#00ADEE"/>
	</linearGradient>
	<path style="fill:url(#SVGID_00000039094452853731567760000001517314346854493083_);" d="M233.32,109.61
		c0,5.13-4.16,9.29-9.29,9.29c-5.13,0-9.29-4.16-9.29-9.29c0-4.87,3.76-8.86,8.53-9.25V71.61h1.51v28.74
		C229.56,100.74,233.32,104.73,233.32,109.61z"/>
	
		<linearGradient id="SVGID_00000087402752131752145910000000778475466434405517_" gradientUnits="userSpaceOnUse" x1="1179.5234" y1="462.8571" x2="1201.1761" y2="462.8571" gradientTransform="matrix(-1 0 0 -1 1436.859 566.7838)">
		<stop  offset="0" style="stop-color:#0089CD"/>
		<stop  offset="1" style="stop-color:#00ADEE"/>
	</linearGradient>
	<path style="fill:url(#SVGID_00000087402752131752145910000000778475466434405517_);" d="M257.34,121.49
		c0,5.98-4.85,10.83-10.83,10.83c-5.98,0-10.83-4.85-10.83-10.83c0-5.72,4.44-10.4,10.07-10.79V75.54h1.51v35.16
		C252.89,111.09,257.34,115.77,257.34,121.49z"/>
</g>
<g>
	<path class="st1" d="M62.55,144.56c-2.59-1.55-5.46-2.32-8.6-2.32c-2.75,0-5.21,0.57-7.39,1.7c-2.18,1.13-3.9,2.53-5.16,4.18v-5.3
		h-7.45v53.15h7.45v-22.36c1.35,1.66,3.09,3.04,5.23,4.15c2.14,1.11,4.58,1.67,7.32,1.67c3.14,0,6-0.8,8.6-2.39
		c2.59-1.59,4.63-3.81,6.11-6.67c1.48-2.85,2.22-6.09,2.22-9.71s-0.74-6.82-2.22-9.61C67.18,148.28,65.14,146.11,62.55,144.56z
		 M61.77,167.21c-1.02,1.87-2.38,3.3-4.05,4.28c-1.68,0.98-3.48,1.47-5.39,1.47c-1.87,0-3.65-0.48-5.33-1.44
		c-1.68-0.96-3.03-2.36-4.05-4.22c-1.02-1.85-1.54-4.02-1.54-6.5c0-2.48,0.51-4.64,1.54-6.47c1.02-1.83,2.37-3.22,4.05-4.18
		c1.68-0.96,3.45-1.44,5.33-1.44c1.92,0,3.72,0.47,5.39,1.4c1.68,0.94,3.03,2.31,4.05,4.12c1.02,1.81,1.54,3.96,1.54,6.44
		C63.3,163.16,62.79,165.34,61.77,167.21z M102.86,144.46c-2.66-1.48-5.69-2.22-9.09-2.22c-3.53,0-6.66,0.76-9.38,2.29
		c-2.72,1.53-4.84,3.69-6.34,6.51c-1.5,2.81-2.26,6.07-2.26,9.77s0.77,6.96,2.32,9.77c1.55,2.81,3.68,4.99,6.41,6.54
		c2.72,1.55,5.81,2.32,9.25,2.32c4.23,0,7.77-1.06,10.62-3.17c2.85-2.11,4.83-4.83,5.92-8.14h-8.04c-1.66,3.36-4.49,5.03-8.5,5.03
		c-2.79,0-5.14-0.87-7.06-2.61c-1.92-1.74-2.99-4.05-3.2-6.93h27.52c0.17-1.09,0.26-2.31,0.26-3.66c0-3.49-0.74-6.57-2.22-9.25
		C107.58,148.03,105.51,145.95,102.86,144.46z M83.57,157.6c0.35-2.79,1.44-5,3.27-6.64c1.83-1.63,4.03-2.45,6.6-2.45
		c2.83,0,5.21,0.83,7.13,2.48c1.92,1.66,2.9,3.86,2.94,6.6H83.57z M143.91,144.53c-2.79-1.53-5.91-2.29-9.35-2.29
		c-3.44,0-6.56,0.76-9.35,2.29c-2.79,1.53-4.99,3.7-6.6,6.54c-1.61,2.83-2.42,6.08-2.42,9.74c0,3.7,0.78,6.96,2.35,9.77
		c1.57,2.81,3.73,4.99,6.47,6.54c2.75,1.55,5.82,2.32,9.22,2.32c3.44,0,6.59-0.77,9.45-2.32c2.85-1.55,5.11-3.74,6.77-6.57
		c1.66-2.83,2.48-6.08,2.48-9.74c0-3.66-0.81-6.91-2.42-9.74C148.9,148.23,146.7,146.05,143.91,144.53z M143.72,167.48
		c-1.05,1.83-2.41,3.2-4.09,4.12c-1.68,0.92-3.48,1.37-5.39,1.37c-3.01,0-5.5-1.06-7.49-3.17c-1.98-2.11-2.97-5.11-2.97-8.99
		c0-2.62,0.48-4.83,1.44-6.64c0.96-1.81,2.26-3.17,3.89-4.09c1.63-0.92,3.41-1.37,5.33-1.37c1.92,0,3.7,0.46,5.36,1.37
		c1.66,0.91,2.99,2.28,3.99,4.09c1,1.81,1.5,4.02,1.5,6.64C145.29,163.42,144.76,165.64,143.72,167.48z M187.62,144.56
		c-2.59-1.55-5.46-2.32-8.6-2.32c-2.75,0-5.21,0.57-7.39,1.7c-2.18,1.13-3.9,2.53-5.16,4.18v-5.3h-7.45v53.15h7.45v-22.36
		c1.35,1.66,3.09,3.04,5.23,4.15c2.14,1.11,4.58,1.67,7.32,1.67c3.14,0,6-0.8,8.6-2.39c2.59-1.59,4.63-3.81,6.11-6.67
		c1.48-2.85,2.22-6.09,2.22-9.71s-0.74-6.82-2.22-9.61C192.25,148.28,190.21,146.11,187.62,144.56z M186.83,167.21
		c-1.02,1.87-2.38,3.3-4.05,4.28c-1.68,0.98-3.48,1.47-5.39,1.47c-1.87,0-3.65-0.48-5.33-1.44c-1.68-0.96-3.03-2.36-4.05-4.22
		c-1.02-1.85-1.54-4.02-1.54-6.5c0-2.48,0.51-4.64,1.54-6.47c1.02-1.83,2.37-3.22,4.05-4.18c1.68-0.96,3.45-1.44,5.33-1.44
		c1.92,0,3.72,0.47,5.39,1.4c1.68,0.94,3.03,2.31,4.05,4.12c1.02,1.81,1.54,3.96,1.54,6.44
		C188.37,163.16,187.85,165.34,186.83,167.21z M202.03,130.47h7.45v48.38h-7.45V130.47z M251,159.96c0-3.49-0.74-6.57-2.22-9.25
		c-1.48-2.68-3.55-4.76-6.21-6.24c-2.66-1.48-5.69-2.22-9.09-2.22c-3.53,0-6.66,0.76-9.38,2.29c-2.72,1.53-4.84,3.69-6.34,6.51
		c-1.5,2.81-2.26,6.07-2.26,9.77s0.77,6.96,2.32,9.77c1.55,2.81,3.68,4.99,6.41,6.54c2.72,1.55,5.81,2.32,9.25,2.32
		c4.23,0,7.77-1.06,10.62-3.17c2.85-2.11,4.83-4.83,5.92-8.14h-8.04c-1.66,3.36-4.49,5.03-8.5,5.03c-2.79,0-5.14-0.87-7.06-2.61
		c-1.92-1.74-2.99-4.05-3.2-6.93h27.52C250.91,162.53,251,161.31,251,159.96z M223.28,157.6c0.35-2.79,1.44-5,3.27-6.64
		c1.83-1.63,4.03-2.45,6.6-2.45c2.83,0,5.21,0.83,7.13,2.48c1.92,1.66,2.9,3.86,2.94,6.6H223.28z"/>
	<g>
		
			<linearGradient id="SVGID_00000060015924093767578680000010347772161289318019_" gradientUnits="userSpaceOnUse" x1="33.9502" y1="215.2475" x2="174.8294" y2="215.2475">
			<stop  offset="0" style="stop-color:#0089CD"/>
			<stop  offset="1" style="stop-color:#00ADEE"/>
		</linearGradient>
		<path style="fill:url(#SVGID_00000060015924093767578680000010347772161289318019_);" d="M78.24,203.51h10.22l-9.58,35.41H66.89
			l-5.58-22.97l-5.77,22.97H43.6l-9.65-35.41H44.8l5.01,25.32l5.97-25.32h11.49l6.03,25.19L78.24,203.51z M125.9,229.02
			c-0.51-0.47-0.76-1.23-0.76-2.29v-14.21h7.11v-9.01h-7.11v-8.63h-10.85v8.63h-4.32v9.01h4.32v14.09c0,4.36,1.1,7.5,3.3,9.42
			c2.2,1.93,5.27,2.89,9.2,2.89h5.52v-9.2h-3.87C127.26,229.72,126.41,229.49,125.9,229.02z M171.15,207.16
			c-2.45-2.69-5.71-4.03-9.77-4.03c-2.37,0-4.51,0.47-6.41,1.4c-1.9,0.93-3.41,2.18-4.51,3.74v-16.31h-10.85v46.96h10.85v-19.23
			c0-2.37,0.61-4.21,1.84-5.52c1.23-1.31,2.88-1.97,4.95-1.97c2.07,0,3.72,0.66,4.95,1.97c1.23,1.31,1.84,3.15,1.84,5.52v19.23
			h10.79v-20.69C174.83,213.54,173.6,209.85,171.15,207.16z M99.32,191.57c-3.32,0-6.01,2.69-6.01,6.02c0,3.32,2.69,6.02,6.01,6.02
			c3.32,0,6.02-2.69,6.02-6.02C105.33,194.27,102.64,191.57,99.32,191.57z M99.32,207.79c-2.32,0-4.33-1.25-5.46-3.09v34.22h10.85
			v-34.1C103.57,206.61,101.59,207.79,99.32,207.79z"/>
		<g>
			<path class="st1" d="M186.63,229.85c0.48-0.28,1.03-0.41,1.65-0.41v2.44h-0.61c-0.73,0-1.28,0.17-1.65,0.52
				c-0.37,0.34-0.56,0.94-0.56,1.79v4.59h-2.33v-9.21h2.33v1.43C185.76,230.51,186.15,230.13,186.63,229.85z"/>
			<path class="st1" d="M198,234.87h-6.73c0.05,0.66,0.29,1.19,0.7,1.56c0.41,0.38,0.91,0.56,1.51,0.56c0.86,0,1.48-0.37,1.84-1.11
				h2.51c-0.27,0.89-0.78,1.61-1.53,2.18s-1.68,0.86-2.77,0.86c-0.89,0-1.68-0.2-2.38-0.59c-0.7-0.39-1.25-0.95-1.65-1.67
				c-0.39-0.72-0.59-1.55-0.59-2.49c0-0.95,0.19-1.79,0.58-2.51c0.39-0.72,0.93-1.27,1.63-1.66c0.7-0.39,1.5-0.58,2.41-0.58
				c0.88,0,1.66,0.19,2.35,0.56c0.69,0.38,1.23,0.91,1.61,1.6c0.38,0.69,0.57,1.49,0.57,2.39C198.07,234.3,198.05,234.6,198,234.87z
				 M195.66,233.31c-0.01-0.6-0.23-1.08-0.65-1.44c-0.42-0.36-0.94-0.54-1.55-0.54c-0.58,0-1.06,0.17-1.45,0.52
				c-0.39,0.35-0.63,0.83-0.72,1.46H195.66z"/>
			<path class="st1" d="M200.93,238.51c-0.6-0.27-1.07-0.64-1.42-1.11c-0.35-0.47-0.54-0.98-0.57-1.55h2.34
				c0.04,0.35,0.22,0.65,0.52,0.88c0.3,0.23,0.68,0.35,1.14,0.35c0.44,0,0.79-0.09,1.04-0.27c0.25-0.18,0.37-0.4,0.37-0.68
				c0-0.3-0.15-0.52-0.46-0.67c-0.3-0.15-0.79-0.31-1.45-0.49c-0.69-0.17-1.25-0.34-1.69-0.52c-0.44-0.18-0.81-0.45-1.13-0.81
				s-0.47-0.86-0.47-1.48c0-0.51,0.15-0.97,0.44-1.4c0.29-0.42,0.71-0.75,1.26-1c0.55-0.24,1.19-0.37,1.94-0.37
				c1.1,0,1.97,0.28,2.62,0.82c0.66,0.55,1.01,1.29,1.08,2.22h-2.23c-0.03-0.37-0.19-0.66-0.46-0.87c-0.27-0.22-0.64-0.32-1.09-0.32
				c-0.42,0-0.74,0.08-0.97,0.23c-0.23,0.16-0.34,0.37-0.34,0.65c0,0.31,0.16,0.54,0.47,0.71c0.31,0.16,0.79,0.32,1.45,0.49
				c0.66,0.17,1.21,0.34,1.65,0.52c0.43,0.18,0.81,0.45,1.12,0.82c0.32,0.37,0.48,0.86,0.49,1.47c0,0.53-0.15,1.01-0.44,1.43
				c-0.29,0.42-0.71,0.75-1.26,0.99c-0.55,0.24-1.19,0.36-1.92,0.36C202.2,238.92,201.53,238.79,200.93,238.51z"/>
			<path class="st1" d="M216.65,234.87h-6.73c0.05,0.66,0.29,1.19,0.7,1.56c0.41,0.38,0.91,0.56,1.51,0.56
				c0.86,0,1.48-0.37,1.84-1.11h2.51c-0.27,0.89-0.78,1.61-1.53,2.18s-1.68,0.86-2.77,0.86c-0.89,0-1.68-0.2-2.38-0.59
				c-0.7-0.39-1.25-0.95-1.65-1.67c-0.39-0.72-0.59-1.55-0.59-2.49c0-0.95,0.19-1.79,0.58-2.51c0.39-0.72,0.93-1.27,1.63-1.66
				c0.7-0.39,1.5-0.58,2.41-0.58c0.88,0,1.66,0.19,2.35,0.56c0.69,0.38,1.23,0.91,1.61,1.6c0.38,0.69,0.57,1.49,0.57,2.39
				C216.71,234.3,216.69,234.6,216.65,234.87z M214.31,233.31c-0.01-0.6-0.23-1.08-0.65-1.44c-0.42-0.36-0.94-0.54-1.55-0.54
				c-0.58,0-1.06,0.17-1.45,0.52c-0.39,0.35-0.63,0.83-0.72,1.46H214.31z"/>
			<path class="st1" d="M218.04,231.66c0.37-0.72,0.87-1.27,1.51-1.66c0.64-0.39,1.35-0.58,2.14-0.58c0.69,0,1.29,0.14,1.8,0.42
				c0.51,0.28,0.93,0.63,1.24,1.05v-1.31h2.34v9.21h-2.34v-1.35c-0.3,0.43-0.71,0.79-1.24,1.07c-0.53,0.28-1.13,0.42-1.82,0.42
				c-0.77,0-1.48-0.2-2.12-0.6c-0.64-0.4-1.14-0.96-1.51-1.69c-0.37-0.72-0.56-1.56-0.56-2.5
				C217.48,233.21,217.66,232.38,218.04,231.66z M224.39,232.72c-0.22-0.41-0.52-0.71-0.9-0.93c-0.38-0.22-0.78-0.32-1.21-0.32
				c-0.43,0-0.83,0.1-1.2,0.31c-0.37,0.21-0.66,0.52-0.89,0.92c-0.23,0.41-0.34,0.89-0.34,1.44c0,0.55,0.11,1.04,0.34,1.45
				c0.23,0.41,0.53,0.73,0.9,0.96c0.37,0.22,0.77,0.33,1.19,0.33c0.43,0,0.84-0.11,1.21-0.32c0.38-0.22,0.68-0.52,0.9-0.93
				c0.22-0.4,0.33-0.89,0.33-1.45S224.61,233.12,224.39,232.72z"/>
			<path class="st1" d="M232.51,229.85c0.48-0.28,1.03-0.41,1.65-0.41v2.44h-0.61c-0.73,0-1.28,0.17-1.65,0.52
				c-0.37,0.34-0.56,0.94-0.56,1.79v4.59h-2.33v-9.21h2.33v1.43C231.64,230.51,232.03,230.13,232.51,229.85z"/>
			<path class="st1" d="M235.37,231.67c0.39-0.71,0.92-1.27,1.61-1.66c0.69-0.39,1.47-0.59,2.36-0.59c1.14,0,2.09,0.29,2.83,0.86
				c0.75,0.57,1.25,1.37,1.5,2.4h-2.51c-0.13-0.4-0.36-0.71-0.67-0.94c-0.31-0.23-0.71-0.34-1.17-0.34c-0.66,0-1.19,0.24-1.58,0.72
				c-0.39,0.48-0.58,1.17-0.58,2.05c0,0.88,0.19,1.55,0.58,2.04c0.39,0.48,0.91,0.72,1.58,0.72c0.94,0,1.56-0.42,1.84-1.26h2.51
				c-0.26,1-0.76,1.79-1.51,2.38c-0.75,0.59-1.69,0.88-2.83,0.88c-0.89,0-1.67-0.2-2.36-0.59c-0.69-0.39-1.23-0.95-1.61-1.66
				c-0.39-0.71-0.58-1.55-0.58-2.5C234.79,233.22,234.99,232.38,235.37,231.67z"/>
			<path class="st1" d="M252.11,229.89c0.54,0.3,0.97,0.75,1.27,1.35c0.31,0.59,0.46,1.3,0.46,2.13v5.4h-2.33v-5.08
				c0-0.73-0.18-1.29-0.55-1.69c-0.37-0.39-0.87-0.59-1.5-0.59c-0.64,0-1.15,0.2-1.52,0.59c-0.37,0.39-0.56,0.96-0.56,1.69v5.08
				h-2.33v-12.3h2.33v4.24c0.3-0.4,0.7-0.71,1.2-0.94c0.5-0.23,1.05-0.34,1.66-0.34C250.94,229.43,251.57,229.59,252.11,229.89z"/>
		</g>
	</g>
</g>
</svg>
